<?xml version="1.0" encoding="utf-8"?>
<!-- Generator: Adobe Illustrator 22.1.0, SVG Export Plug-In . SVG Version: 6.00 Build 0)  -->
<svg version="1.1" id="Layer_1" xmlns="http://www.w3.org/2000/svg" xmlns:xlink="http://www.w3.org/1999/xlink" x="0px" y="0px"
	 viewBox="0 0 500 131" style="enable-background:new 0 0 500 131;" xml:space="preserve">
<style type="text/css">
	.st0{fill:#171717;}
</style>
<g>
	<path class="st0" d="M65.8,0.1C29.5,0.1,0.1,29.5,0.1,65.8s29.4,65.6,65.6,65.6s65.6-29.4,65.6-65.6S102,0.1,65.8,0.1z M49.7,14.4
		c0.3-0.1,0.7,0.3,1,0.6c3.6,4,7.2,7.9,10.8,11.9c2.3,2.5,4.1,2.4,6.3-0.2c3.2-3.8,6.3-7.7,9.4-11.5c1.5-1.8,1.5-1.8,3.7-1.1
		c-3.9,6.3-7.7,12.4-11.5,18.6c-0.4,0.7-0.8,1.3-1.2,2c-1.6,2.5-3.4,2.7-5.3,0.5C57.4,29.2,52,23.1,46.6,17
		c-0.3-0.4-0.6-0.7-1.1-1.3C47,15.3,48.3,14.8,49.7,14.4z M37.8,19.4c3.1,2.8,6.1,5.6,9.1,8.3c5.8,5.3,11.5,10.5,17.3,15.8
		c2.5,2.3,4.4,2,6.4-0.7c6.2-8.5,12.3-17.1,18.7-25.8c2.9,1.7,5.8,3.3,8.7,5c-5.5,7.1-10.9,14-16.2,21c-4,5.3-7.9,10.6-11.9,15.9
		c-1.7,2.2-3.6,2.4-5.5,0.4C53.6,47.4,42.9,35.6,32.1,23.8c-0.1-0.1-0.1-0.1-0.3-0.5C33.8,22,35.8,20.7,37.8,19.4z M14.1,84.6
		c-0.7-2.3-1.3-4.5-1.9-6.7c-0.1-0.3,0.4-0.8,0.8-1c4.1-3,8.2-6,12.2-8.9c2.6-1.9,2.8-3.9,0.6-6.2c-3.8-4-7.6-8.1-11.4-12.1
		c-0.7-0.7-0.8-1.3-0.4-2.2c0.5-1,0.9-2.1,1.3-3.3c7.1,6.4,14.1,12.8,21.1,19.1c0.4,0.3,0.7,0.6,1.1,1c1.6,1.6,1.5,3.5-0.4,4.8
		c-2.3,1.6-4.7,3.2-7,4.8c-4.5,3.1-9.1,6.1-13.6,9.2C15.7,83.5,15,84,14.1,84.6z M22.7,99.4c-1.6-2.2-3.1-4.4-4.7-6.7
		c3.8-3,7.5-6,11.1-8.9c5.7-4.6,11.4-9.1,17.1-13.7c2.2-1.8,2.4-3.9,0.4-6C37.8,54.8,29,45.6,20.1,36.3C20.1,36.2,20,36.1,20,36
		c0.5-0.7,1.1-1.5,1.7-2.3c4.3,3.6,8.5,7.2,12.7,10.8c7.8,6.6,15.7,13.3,23.5,19.9c0.2,0.2,0.5,0.4,0.7,0.6c1.9,1.7,1.9,3.7-0.1,5.3
		c-4.1,3.4-8.3,6.6-12.4,10c-7.5,6.1-14.9,12.3-22.4,18.4C23.4,98.9,23.2,99.1,22.7,99.4z M82.4,117c-0.4,0.1-1-0.2-1.3-0.5
		c-3.8-3.8-7.6-7.7-11.4-11.6c-2.2-2.3-4.2-2.1-6.1,0.4c-3.1,4-6.2,8-9.2,12c-0.6,0.8-1.1,1-2.1,0.7c-1.4-0.5-2.8-0.8-4.4-1.2
		c0.3-0.5,0.6-0.8,0.9-1.1c4.8-5.9,9.7-11.8,14.5-17.7c2.1-2.6,4-2.7,6.4-0.2c5.6,5.9,11.3,11.8,17.1,17.8
		C85.2,116,83.8,116.6,82.4,117z M93,112.5c-0.3-0.4-0.6-0.8-0.9-1.2c-7.4-8-14.9-15.9-22.3-23.9c-2.5-2.7-4.4-2.7-7.1-0.2
		c-8.3,7.8-16.7,15.6-25,23.4c-0.7,0.6-1.2,0.8-2,0.2c-0.7-0.6-1.5-1-2.4-1.6c0.8-0.7,1.5-1.4,2.1-2.1c9.8-10.4,19.6-20.9,29.4-31.3
		c2.3-2.5,4.1-2.4,6.1,0.4c8,11.2,16.1,22.4,24.1,33.5c0.2,0.3,0.5,0.7,0.8,1.2C94.8,111.4,94,111.9,93,112.5z M117.7,47.4
		c0.6,2.2,1.2,4.2,1.7,6.2c0.1,0.3-0.4,0.9-0.8,1.1c-3.6,2.4-7.1,4.7-10.7,7c-2.6,1.7-2.8,3.6-0.5,5.7c3.7,3.5,7.3,7,11,10.4
		c0.7,0.6,0.9,1.2,0.5,2c-0.8,2.1-1.4,4.3-2.2,6.6c-0.5-0.4-0.8-0.7-1.1-1c-5.7-5.5-11.4-11-17.1-16.5c-2.2-2.2-2.1-4.2,0.3-6.1
		c5.9-4.8,11.8-9.6,17.7-14.5C116.8,48.1,117.1,47.9,117.7,47.4z M107.1,45.1c-5.8,5.8-11.6,11.5-17.4,17.3
		c-2.3,2.3-2.4,4.4-0.2,6.8c7.2,7.9,14.3,15.7,21.5,23.6c0.5,0.5,0.9,1,1.5,1.7c-1.5,2-3,4-4.6,6.1c-2.8-2.6-5.3-5.1-7.9-7.5
		c-7.8-7.4-15.7-14.9-23.5-22.3c-2.4-2.3-2.4-4.2,0-6.6C87.2,53.6,98,43.1,109,32.3c1.5,2.1,3,4.2,4.5,6.3
		C111.3,40.8,109.2,43,107.1,45.1z"/>
	<g>
		<g>
			<path class="st0" d="M154.6,99.4h7.3c1.8,0,3.4,0.2,4.9,0.7c1.5,0.4,2.7,1.1,3.8,2.1c1,0.9,1.9,2.1,2.4,3.6
				c0.6,1.4,0.9,3.1,0.9,5.1c0,2-0.3,3.7-0.9,5.1c-0.6,1.4-1.5,2.6-2.5,3.6c-1.1,0.9-2.3,1.7-3.8,2.1c-1.5,0.5-3,0.7-4.7,0.7h-7.3
				V99.4z M157.4,119.7h4.5c1.2,0,2.4-0.2,3.5-0.5c1.1-0.3,2-0.8,2.8-1.5c0.8-0.7,1.5-1.6,1.9-2.8c0.5-1.1,0.7-2.5,0.7-4.2
				c0-1.5-0.2-2.8-0.6-3.9c-0.4-1.1-1-2-1.8-2.7c-0.8-0.7-1.7-1.2-2.8-1.6c-1.1-0.3-2.3-0.5-3.7-0.5h-4.5V119.7z"/>
			<path class="st0" d="M180.2,99.4h14v2.6h-11.2v7.3h10.4v2.5h-10.4v7.9h11.5v2.6h-14.4V99.4z"/>
			<path class="st0" d="M212.5,102.5c-0.5-0.1-1.1-0.3-1.7-0.4c-0.5-0.1-1.1-0.2-1.8-0.3c-0.7-0.1-1.3-0.1-2.1-0.1
				c-1.7,0-2.8,0.3-3.6,0.8c-0.7,0.5-1.1,1.3-1.1,2.3c0,0.8,0.3,1.5,0.9,2.1c0.6,0.6,1.3,1.1,2.2,1.6c0.9,0.5,1.8,0.9,2.9,1.4
				c1,0.5,2,1,2.9,1.6c0.9,0.6,1.6,1.3,2.2,2.1c0.6,0.8,0.9,1.8,0.9,2.9c0,1.3-0.3,2.4-0.9,3.2c-0.6,0.8-1.3,1.4-2.2,1.9
				c-0.9,0.4-1.8,0.7-2.9,0.9c-1,0.2-2,0.2-3,0.2c-0.9,0-1.7-0.1-2.4-0.2c-0.7-0.1-1.4-0.2-1.9-0.4c-0.6-0.2-1.2-0.3-1.7-0.5
				l0.7-2.7c0.5,0.2,1.1,0.4,1.6,0.6c0.5,0.1,1.1,0.3,1.7,0.4c0.6,0.1,1.3,0.2,2,0.2c0.9,0,1.7-0.1,2.4-0.2c0.7-0.1,1.4-0.3,1.9-0.5
				c0.5-0.2,1-0.6,1.3-1c0.3-0.4,0.5-0.9,0.5-1.5c0-0.9-0.3-1.6-0.9-2.1c-0.5-0.5-1.3-1.1-2.2-1.6c-0.9-0.5-1.9-1-2.9-1.5
				c-1-0.5-2-1-2.9-1.6c-0.9-0.6-1.6-1.3-2.2-2.1c-0.6-0.8-0.9-1.9-0.9-3.1c0-0.7,0.1-1.4,0.4-2.1c0.2-0.7,0.7-1.3,1.3-1.8
				s1.4-1,2.3-1.3c0.9-0.3,2.1-0.5,3.5-0.5c0.8,0,1.6,0,2.3,0.1c0.7,0.1,1.4,0.2,1.9,0.3c0.6,0.1,1.2,0.2,1.8,0.4L212.5,102.5z"/>
			<path class="st0" d="M220.1,99.4h2.8v22.9h-2.8V99.4z"/>
			<path class="st0" d="M247.9,102.6c-1-0.2-2-0.4-3.1-0.6c-1.1-0.2-2.4-0.3-3.8-0.3c-1.5,0-2.7,0.2-3.8,0.7c-1.1,0.4-1.9,1-2.6,1.8
				c-0.7,0.8-1.2,1.7-1.5,2.8c-0.3,1.1-0.5,2.3-0.5,3.6c0,1.7,0.2,3.1,0.7,4.4c0.4,1.2,1,2.2,1.8,3c0.8,0.8,1.7,1.3,2.7,1.7
				c1,0.4,2.1,0.5,3.3,0.5c0.8,0,1.4,0,2.1-0.1c0.6-0.1,1.2-0.2,1.6-0.3c0.5-0.1,0.9-0.3,1.3-0.4v-6.1h-4.2v-2.5h7v10
				c-0.8,0.5-1.9,1-3.2,1.4c-1.4,0.4-2.9,0.6-4.5,0.6c-1.5,0-3-0.2-4.4-0.5c-1.4-0.4-2.6-1-3.7-1.9c-1.1-0.9-1.9-2.1-2.6-3.7
				c-0.6-1.6-1-3.5-1-5.9c0-1.9,0.3-3.6,0.9-5.1c0.6-1.4,1.4-2.6,2.5-3.6c1-0.9,2.2-1.7,3.6-2.1c1.4-0.5,2.8-0.7,4.4-0.7
				c1,0,2,0.1,2.9,0.2c0.9,0.1,1.8,0.2,2.6,0.3c0.8,0.1,1.5,0.3,2.2,0.5L247.9,102.6z"/>
			<path class="st0" d="M255.3,99.4h2.7l12,18.1h0.1c0-0.6-0.1-1.3-0.1-2.1c0-0.6-0.1-1.3-0.1-2.2c0-0.8,0-1.6,0-2.5V99.4h2.7v22.9
				h-2.7l-12-18.2h-0.1c0,0.7,0.1,1.4,0.1,2.1c0,0.6,0,1.4,0.1,2.2c0,0.8,0,1.6,0,2.5v11.4h-2.7V99.4z"/>
			<path class="st0" d="M291.8,102.5c-0.5-0.1-1.1-0.3-1.7-0.4c-0.5-0.1-1.1-0.2-1.8-0.3c-0.7-0.1-1.3-0.1-2.1-0.1
				c-1.7,0-2.8,0.3-3.6,0.8s-1.1,1.3-1.1,2.3c0,0.8,0.3,1.5,0.9,2.1c0.6,0.6,1.3,1.1,2.2,1.6c0.9,0.5,1.8,0.9,2.9,1.4
				c1,0.5,2,1,2.9,1.6s1.6,1.3,2.2,2.1c0.6,0.8,0.9,1.8,0.9,2.9c0,1.3-0.3,2.4-0.9,3.2c-0.6,0.8-1.3,1.4-2.2,1.9
				c-0.9,0.4-1.8,0.7-2.9,0.9c-1,0.2-2,0.2-3,0.2c-0.9,0-1.7-0.1-2.4-0.2c-0.7-0.1-1.4-0.2-1.9-0.4c-0.6-0.2-1.2-0.3-1.7-0.5
				l0.7-2.7c0.5,0.2,1.1,0.4,1.6,0.6c0.5,0.1,1.1,0.3,1.7,0.4c0.6,0.1,1.3,0.2,2,0.2c0.9,0,1.7-0.1,2.4-0.2c0.7-0.1,1.4-0.3,1.9-0.5
				c0.5-0.2,1-0.6,1.3-1c0.3-0.4,0.5-0.9,0.5-1.5c0-0.9-0.3-1.6-0.9-2.1c-0.5-0.5-1.3-1.1-2.2-1.6s-1.9-1-2.9-1.5s-2-1-2.9-1.6
				c-0.9-0.6-1.6-1.3-2.2-2.1c-0.6-0.8-0.9-1.9-0.9-3.1c0-0.7,0.1-1.4,0.4-2.1c0.2-0.7,0.7-1.3,1.3-1.8s1.4-1,2.3-1.3
				c0.9-0.3,2.1-0.5,3.5-0.5c0.8,0,1.6,0,2.3,0.1c0.7,0.1,1.4,0.2,1.9,0.3c0.6,0.1,1.2,0.2,1.8,0.4L291.8,102.5z"/>
		</g>
		<g>
			<path class="st0" d="M201.2,12.9l-13.3,34.5c-0.4,1-0.8,2-1.1,2.9c-0.3-0.9-0.7-1.9-1.1-2.9l-13.1-34.5h-14.8l-3.2,61.6H169
				l1.5-27.4l10.4,27.4h12l10.5-28l1.3,28h14.5L216,12.9H201.2z"/>
			<path class="st0" d="M272.1,50.4c0,2.4-0.3,4.4-0.9,5.8c-0.6,1.3-1.3,2.3-2.2,3c-1,0.8-2.1,1.3-3.3,1.6c-3,0.7-6.3,0.7-9.3,0
				c-1.3-0.3-2.4-0.8-3.3-1.6c-0.9-0.7-1.7-1.7-2.3-3.1c-0.6-1.4-1-3.4-1-5.8V12.9h-14.4V52c0,7.3,2.3,13.1,6.9,17.3
				c4.5,4,10.8,6.1,18.7,6.1c3.7,0,7.2-0.6,10.3-1.7c3.2-1.2,5.9-2.8,8.2-4.9c2.3-2.1,4.1-4.6,5.3-7.5c1.2-2.8,1.9-5.9,1.9-9.2V12.9
				h-14.4V50.4z"/>
			<rect x="304.1" y="12.9" class="st0" width="14.4" height="61.6"/>
			<path class="st0" d="M366.9,42.1L366.9,42.1c-2.2-1.5-4.7-2.9-7.4-4c-2.3-1-4.5-2.1-6.4-3.2c-1.7-1-3.2-2-4.3-3.1
				c-0.6-0.6-0.9-1.3-1-2.2c0-1.7,0.6-2.1,0.9-2.3c0.5-0.3,2-1.1,6.1-1.1c1.5,0,3,0.1,4.4,0.2c1.4,0.2,2.7,0.4,3.8,0.6l0.1,0
				c1.3,0.3,2.6,0.5,3.7,0.8l4,1l2.4-14.1l-3.5-0.8c-1.4-0.3-2.8-0.6-4.5-0.9c-1.3-0.2-2.9-0.4-4.7-0.6c-1.8-0.2-3.8-0.3-5.8-0.3
				c-3.7,0-7,0.5-9.6,1.4c-2.7,1-5,2.3-6.8,3.9c-1.9,1.7-3.2,3.7-4,5.9c-0.7,2-1.1,4.1-1.1,6.3c0,3.7,0.9,6.9,2.8,9.5
				c1.6,2.3,3.7,4.3,6.1,6c2.2,1.5,4.7,2.9,7.4,4.1c2.3,1.1,4.6,2.2,6.6,3.3c1.8,1,3.2,2,4.3,3.1c0.4,0.4,0.8,1,0.9,2.3
				c0,0.7-0.2,0.9-0.3,1.1c-0.3,0.4-0.8,0.8-1.5,1.1c-0.9,0.4-2.1,0.7-3.4,1c-1.5,0.2-3.2,0.3-5.1,0.3c-1.5,0-2.8-0.1-4.1-0.3
				c-1.4-0.2-2.7-0.5-3.7-0.8c-1.2-0.3-2.3-0.7-3.3-1.2l-4.2-1.8l-3.5,14.1l3.2,1.2c1.4,0.5,2.9,1,4.5,1.4c1.4,0.3,3,0.7,4.9,0.9
				c1.9,0.3,4.1,0.4,6.3,0.4c2.4,0,4.9-0.2,7.6-0.6c2.9-0.4,5.5-1.3,7.9-2.5c2.6-1.3,4.8-3.2,6.5-5.6c1.8-2.6,2.7-5.8,2.7-9.7
				c0-3.5-1-6.6-2.9-9.1C371.4,45.7,369.3,43.7,366.9,42.1z"/>
			<path class="st0" d="M429.4,59.8c-1,0.4-2.2,0.7-3.6,1c-1.2,0.2-2.7,0.5-4.5,0.7c-1.7,0.2-3.5,0.3-5.6,0.3
				c-1.8,0-3.5-0.4-5.1-1.1c-1.6-0.8-3.1-1.9-4.3-3.3c-1.3-1.5-2.3-3.3-3.1-5.5c-0.8-2.2-1.2-4.8-1.2-7.6c0-2.3,0.3-4.6,0.8-6.9
				c0.5-2.2,1.4-4.2,2.5-5.9c1.1-1.7,2.5-3,4.2-4.1c1.6-1,3.6-1.5,6-1.5c1.8,0,3.5,0.1,5,0.3c1.6,0.2,3.1,0.5,4.5,0.8
				c1.4,0.3,2.7,0.7,3.9,1.1l3.9,1.3l3.3-13.4l-3.5-1.1c-1.5-0.4-3-0.9-4.7-1.3c-1.7-0.4-3.6-0.7-5.7-1c-2.1-0.3-4.3-0.4-6.7-0.4
				c-4.1,0-8,0.7-11.4,2.1c-3.6,1.4-6.7,3.5-9.3,6.3c-2.6,2.7-4.6,6.1-6,10.1c-1.4,3.9-2.1,8.4-2.1,13.4c0,4.4,0.6,8.5,1.8,12.2
				c1.2,3.8,3,7.2,5.4,10c2.5,2.9,5.6,5.2,9.2,6.8c3.6,1.6,7.8,2.4,12.5,2.4c2.5,0,4.8-0.1,6.9-0.4c2-0.3,3.9-0.6,5.4-0.9
				c1.9-0.4,3.6-0.9,5.2-1.4l3.4-1.1l-3.2-13.2L429.4,59.8z"/>
			<path class="st0" d="M499.6,70.1c-0.1-1.2-0.3-2.3-0.4-3.4c-0.1-1-0.2-2.1-0.2-3.2c0-1.1-0.1-2.2-0.1-3.2V33.3
				c0-2.9-0.3-5.8-0.8-8.5c-0.6-2.9-1.7-5.6-3.3-8c-1.7-2.5-4.1-4.5-7-5.9c-2.9-1.4-6.5-2.1-11-2.1c-3,0-5.8,0.1-8.4,0.4
				c-2.6,0.3-4.9,0.6-6.8,1c-2.3,0.4-4.4,0.8-6.3,1.3l-3.7,0.9l3.6,15.5l3.9-1.1c1.5-0.4,3.1-0.8,4.8-1.2c1.5-0.3,3.2-0.6,5.2-0.8
				c1.9-0.2,3.8-0.4,5.8-0.4c2.7,0,4,0.4,4.5,0.7c0.7,0.4,1.3,0.9,1.7,1.6c0.5,1,0.8,2.3,0.9,3.8c0.1,1,0.1,2,0.2,3.1
				c-0.4,0-0.9,0-1.4,0.1c-2.2,0.1-4,0.2-5.4,0.4c-3.4,0.2-6.8,0.8-10.1,1.7c-3.4,0.9-6.5,2.2-9.3,3.9c-2.9,1.7-5.3,4-7.1,6.6
				c-1.9,2.8-2.9,6.1-2.9,9.9c0,6.8,2,11.9,5.9,15.1c3.7,3,8.5,4.5,14.5,4.5c4,0,7.8-0.7,11.3-2.1c1.8-0.7,3.6-1.6,5.6-2.6l0.8,4.5
				l16.2-1.7L499.6,70.1z M463.3,56.3c0-2.5,1-3.5,1.8-4.2c1.2-0.9,3.8-2.1,9.7-2.8c1-0.1,2.1-0.3,3.3-0.4c1.3-0.1,2.6-0.2,3.9-0.3
				c0.1,0,0.1,0,0.2,0v6.8c-2,1.3-4,2.5-6,3.4c-2.3,1-5,1.5-8.1,1.5c-1.7,0-3-0.4-3.9-1.1C464,59,463.3,58.4,463.3,56.3z"/>
		</g>
	</g>
</g>
</svg>
